<svg width="69" height="70" viewBox="0 0 69 70" fill="none" xmlns="http://www.w3.org/2000/svg">
<path d="M61.7902 48.3091C60.926 47.5797 59.7869 47.2725 58.6759 47.466L35.4825 51.5105L28.8947 44.9049C28.676 44.6844 28.3789 44.5613 28.0679 44.5613H15.2034H10.5254H0V46.9066H9.35595V63.324H0V65.6693H10.5254H15.2034C15.8502 65.6693 16.3729 65.1451 16.3729 64.4966V63.324H19.6054L32.1085 69.5931C32.6488 69.8639 33.2347 70 33.8183 70C34.4837 70 35.148 69.8253 35.7432 69.477L61.2569 54.5524C62.4264 53.8687 63.1527 52.6011 63.1527 51.2431C63.1527 50.1092 62.6556 49.0397 61.7902 48.3091ZM14.0339 63.324H11.6949V46.9066H14.0339V63.324ZM60.0781 52.526L34.5656 67.4506C34.1329 67.7039 33.6054 67.7215 33.1552 67.4952L20.4053 61.1029C20.2428 61.0209 20.0627 60.9786 19.8814 60.9786H16.3729V46.9066H27.5837L36.7981 56.1461C37.1958 56.5448 37.4238 57.0971 37.4238 57.6623C37.4238 58.8444 36.4648 59.806 35.286 59.806C34.7234 59.806 34.1714 59.5773 33.7738 59.1786L27.7252 53.1135L26.0715 54.7717L32.1202 60.8367C32.9657 61.6846 34.0896 62.1513 35.286 62.1513C37.7536 62.1513 39.7628 60.1367 39.7628 57.6623C39.7628 56.4639 39.2973 55.3358 38.4518 54.4879L37.5045 53.5381L59.0747 49.7761C59.5109 49.6999 59.9483 49.8195 60.2839 50.1033C60.6207 50.3871 60.8137 50.8022 60.8137 51.242C60.8137 51.7685 60.5318 52.261 60.0781 52.526Z" />
<path d="M17.5426 0C8.5141 0 1.16968 7.36436 1.16968 16.4174C1.16968 25.4704 8.5141 32.8347 17.5426 32.8347C26.5711 32.8347 33.9155 25.4704 33.9155 16.4174C33.9155 7.36436 26.5711 0 17.5426 0ZM17.5426 30.4894C9.80405 30.4894 3.50867 24.1769 3.50867 16.4174C3.50867 8.65781 9.80405 2.34534 17.5426 2.34534C25.2811 2.34534 31.5765 8.65781 31.5765 16.4174C31.5765 24.1769 25.2811 30.4894 17.5426 30.4894Z" />
<path d="M52.6271 7.03589C43.5986 7.03589 36.2542 14.4002 36.2542 23.4532C36.2542 32.5062 43.5986 39.8706 52.6271 39.8706C61.6556 39.8706 69 32.5062 69 23.4532C69 14.4002 61.6556 7.03589 52.6271 7.03589ZM52.6271 37.5253C44.8885 37.5253 38.5931 31.2128 38.5931 23.4532C38.5931 15.6937 44.8885 9.38123 52.6271 9.38123C60.3656 9.38123 66.661 15.6937 66.661 23.4532C66.661 31.2128 60.3656 37.5253 52.6271 37.5253Z" />
<path d="M11.6953 10.5542C9.76091 10.5542 8.18677 12.1326 8.18677 14.0722C8.18677 16.0118 9.76091 17.5902 11.6953 17.5902C13.6296 17.5902 15.2037 16.0118 15.2037 14.0722C15.2037 12.1326 13.6296 10.5542 11.6953 10.5542ZM11.6953 15.2449C11.0497 15.2449 10.5258 14.7195 10.5258 14.0722C10.5258 13.4249 11.0497 12.8995 11.6953 12.8995C12.3408 12.8995 12.8647 13.4249 12.8647 14.0722C12.8647 14.7195 12.3408 15.2449 11.6953 15.2449Z" />
<path d="M23.3901 10.5542C21.4557 10.5542 19.8816 12.1326 19.8816 14.0722C19.8816 16.0118 21.4557 17.5902 23.3901 17.5902C25.3244 17.5902 26.8986 16.0118 26.8986 14.0722C26.8986 12.1326 25.3244 10.5542 23.3901 10.5542ZM23.3901 15.2449C22.7445 15.2449 22.2206 14.7195 22.2206 14.0722C22.2206 13.4249 22.7445 12.8995 23.3901 12.8995C24.0356 12.8995 24.5596 13.4249 24.5596 14.0722C24.5596 14.7195 24.0356 15.2449 23.3901 15.2449Z" />
<path d="M46.7797 17.5901C44.8454 17.5901 43.2712 19.1685 43.2712 21.1081C43.2712 23.0477 44.8454 24.6261 46.7797 24.6261C48.7141 24.6261 50.2882 23.0477 50.2882 21.1081C50.2882 19.1685 48.7141 17.5901 46.7797 17.5901ZM46.7797 22.2808C46.1342 22.2808 45.6102 21.7554 45.6102 21.1081C45.6102 20.4608 46.1342 19.9354 46.7797 19.9354C47.4253 19.9354 47.9492 20.4608 47.9492 21.1081C47.9492 21.7554 47.4253 22.2808 46.7797 22.2808Z" />
<path d="M58.4748 17.5901C56.5404 17.5901 54.9663 19.1685 54.9663 21.1081C54.9663 23.0477 56.5404 24.6261 58.4748 24.6261C60.4091 24.6261 61.9833 23.0477 61.9833 21.1081C61.9833 19.1685 60.4091 17.5901 58.4748 17.5901ZM58.4748 22.2808C57.8292 22.2808 57.3053 21.7554 57.3053 21.1081C57.3053 20.4608 57.8292 19.9354 58.4748 19.9354C59.1204 19.9354 59.6443 20.4608 59.6443 21.1081C59.6443 21.7554 59.1204 22.2808 58.4748 22.2808Z" />
<path d="M17.5423 19.9355C14.318 19.9355 11.6948 22.5658 11.6948 25.7989H14.0338C14.0338 23.8593 15.608 22.2809 17.5423 22.2809C19.4766 22.2809 21.0508 23.8593 21.0508 25.7989H23.3898C23.3898 22.5658 20.7666 19.9355 17.5423 19.9355Z" />
<path d="M56.136 28.144C56.136 30.0836 54.5618 31.662 52.6275 31.662C50.6932 31.662 49.119 30.0836 49.119 28.144H46.78C46.78 31.3771 49.4032 34.0074 52.6275 34.0074C55.8518 34.0074 58.475 31.3771 58.475 28.144H56.136Z" />
<path d="M49.119 0H46.78V2.34534H49.119V0Z" />
<path d="M53.7965 0H51.4575V2.34534H53.7965V0Z" />
<path d="M58.4747 0H56.1357V2.34534H58.4747V0Z" />
</svg>
