<svg width="18" height="18" viewBox="0 0 18 18" fill="none" xmlns="http://www.w3.org/2000/svg">
<path fill-rule="evenodd" clip-rule="evenodd" d="M4.34027 2.24663C4.34027 3.35966 3.50247 4.25026 2.15723 4.25026H2.13258C0.837343 4.25026 0 3.35966 0 2.24663C0 1.11006 0.862846 0.244385 2.18266 0.244385C3.50247 0.244385 4.31523 1.11006 4.34027 2.24663ZM4.08582 5.83228V17.4241H0.227783V5.83228H4.08582ZM17.9996 17.4238L17.9997 10.7774C17.9997 7.21693 16.0964 5.55981 13.5577 5.55981C11.5093 5.55981 10.5922 6.68492 10.0802 7.4742V5.83232H6.22168C6.27253 6.92003 6.22168 17.4241 6.22168 17.4241H10.0802V10.9503C10.0802 10.6039 10.1052 10.2583 10.2072 10.0102C10.4861 9.31811 11.1209 8.60154 12.1868 8.60154C13.5834 8.60154 14.1417 9.66448 14.1417 11.2222V17.4238H17.9996Z"/>
</svg>
