<svg width="21" height="13" viewBox="0 0 21 13" fill="none" xmlns="http://www.w3.org/2000/svg">
<path d="M11.5299 11.9552C11.5299 11.9552 11.9089 11.9139 12.103 11.7092C12.2807 11.5217 12.2745 11.1678 12.2745 11.1678C12.2745 11.1678 12.2509 9.51537 13.0325 9.27138C13.8029 9.03143 14.792 10.8694 15.8417 11.5761C16.6346 12.1105 17.2365 11.9935 17.2365 11.9935L20.0415 11.9552C20.0415 11.9552 21.5083 11.8665 20.8129 10.7343C20.7554 10.6415 20.4072 9.89647 18.7279 8.36601C16.9684 6.76397 17.2047 7.02308 19.3226 4.25151C20.6126 2.56377 21.1282 1.53338 20.967 1.09279C20.8139 0.671363 19.8649 0.783274 19.8649 0.783274L16.7075 0.80243C16.7075 0.80243 16.4734 0.771176 16.2998 0.873005C16.1303 0.972817 16.0204 1.20571 16.0204 1.20571C16.0204 1.20571 15.5212 2.51134 14.8546 3.62239C13.4485 5.96547 12.8867 6.08948 12.6566 5.94429C12.1215 5.60453 12.255 4.5812 12.255 3.85428C12.255 1.58278 12.6063 0.636076 11.572 0.391081C11.2289 0.309416 10.9763 0.255981 10.0981 0.246907C8.97134 0.235817 8.01818 0.25094 7.47792 0.51005C7.11843 0.682453 6.84111 1.06759 7.01058 1.08977C7.21909 1.11699 7.69156 1.21479 7.94217 1.54951C8.26571 1.98203 8.25441 2.95193 8.25441 2.95193C8.25441 2.95193 8.44032 5.6257 7.81995 5.9574C7.39472 6.18526 6.81132 5.72047 5.55722 3.59416C4.91528 2.50529 4.43048 1.30149 4.43048 1.30149C4.43048 1.30149 4.33701 1.07666 4.1696 0.955678C3.96725 0.809488 3.6848 0.764118 3.6848 0.764118L0.684609 0.783274C0.684609 0.783274 0.233707 0.795373 0.0683423 0.987941C-0.0785346 1.15833 0.057044 1.51221 0.057044 1.51221C0.057044 1.51221 2.40605 6.90713 5.06626 9.62627C7.50565 12.1186 10.2747 11.9552 10.2747 11.9552H11.5299Z"/>
</svg>
