<svg width="90" height="78" viewBox="0 0 90 78" fill="none" xmlns="http://www.w3.org/2000/svg">
<path d="M88.0665 0.380615H21.5115C20.4436 0.380615 19.5783 1.14832 19.5783 2.09577V36.1937H1.93322C0.865308 36.1937 0 36.9614 0 37.9088V66.9802C0 72.7147 5.25835 77.3806 11.7223 77.3806C11.8888 77.3806 78.2772 77.3806 78.2772 77.3806C84.7409 77.3806 90 72.715 90 66.9802V2.09577C89.9997 1.14832 89.1344 0.380615 88.0665 0.380615ZM3.86643 66.9802V39.624H19.5783V66.9802C19.5783 70.8232 16.0542 73.9503 11.722 73.9503C7.39056 73.9503 3.86643 70.8232 3.86643 66.9802ZM86.1333 66.9802C86.1333 70.8232 82.6092 73.9503 78.277 73.9503H20.4155C22.2969 72.1048 23.4448 69.6588 23.4448 66.9802V3.81092H86.1333V66.9802Z" />
<path d="M52.0741 20.1915H76.852C77.9199 20.1915 78.7852 19.4237 78.7852 18.4761C78.7852 17.5285 77.9199 16.7607 76.852 16.7607H52.0741C51.0062 16.7607 50.1409 17.5285 50.1409 18.4761C50.1409 19.4237 51.0064 20.1915 52.0741 20.1915Z" />
<path d="M52.0741 39.0349H76.852C77.9199 39.0349 78.7852 38.2669 78.7852 37.3191C78.7852 36.3713 77.9199 35.6033 76.852 35.6033H52.0741C51.0062 35.6033 50.1409 36.3713 50.1409 37.3191C50.1409 38.2669 51.0064 39.0349 52.0741 39.0349Z" />
<path d="M52.0741 57.8768H76.852C77.9199 57.8768 78.7852 57.109 78.7852 56.1613C78.7852 55.2137 77.9199 54.4458 76.852 54.4458H52.0741C51.0062 54.4458 50.1409 55.2137 50.1409 56.1613C50.1409 57.1087 51.0064 57.8768 52.0741 57.8768Z" />
<path d="M34.2343 22.1217C34.5998 22.4648 35.1084 22.6592 35.6399 22.6592C35.6451 22.6592 35.6505 22.6592 35.6561 22.6592C36.1938 22.655 36.7052 22.4529 37.0679 22.1005L47.6869 11.7817C48.4068 11.0821 48.3509 9.99717 47.5627 9.35843C46.7742 8.72015 45.5514 8.76932 44.8314 9.46866L35.6159 18.4233L32.7473 15.7282C32.0137 15.0394 30.7899 15.0087 30.014 15.6589C29.2376 16.3093 29.2031 17.3947 29.9359 18.0835L34.2343 22.1217Z" />
<path d="M44.8314 29.1296L35.6159 38.0837L32.7468 35.3891C32.0137 34.6998 30.7899 34.6692 30.014 35.3198C29.2376 35.9702 29.2031 37.0555 29.9359 37.7444L34.2343 41.7821C34.5998 42.1251 35.1084 42.3195 35.6399 42.3195C35.6451 42.3195 35.6505 42.3195 35.6561 42.3195C36.1938 42.3154 36.7052 42.1132 37.0679 41.7608L47.6869 31.4426C48.4063 30.743 48.3509 29.6581 47.5627 29.0194C46.7744 28.3807 45.5514 28.4298 44.8314 29.1296Z" />
<path d="M44.8314 48.7909L35.6159 57.7449L32.7468 55.0503C32.0137 54.361 30.7899 54.3301 30.014 54.981C29.2376 55.6314 29.2031 56.7167 29.9359 57.4055L34.2343 61.4432C34.5998 61.7862 35.1084 61.9806 35.6399 61.9806C35.6451 61.9806 35.6505 61.9806 35.6561 61.9806C36.1938 61.9765 36.7052 61.7743 37.0679 61.4219L47.6869 51.1038C48.4063 50.4043 48.3509 49.3194 47.5627 48.6807C46.7742 48.042 45.5514 48.0914 44.8314 48.7909Z" />
</svg>
