<svg width="19" height="20" viewBox="0 0 19 20" fill="none" xmlns="http://www.w3.org/2000/svg">
<path fill-rule="evenodd" clip-rule="evenodd" d="M9.50108 0.411377C6.96627 0.411377 6.64816 0.42246 5.65259 0.467766C4.65897 0.513267 3.98074 0.670574 3.38729 0.901382C2.77343 1.13977 2.2527 1.45867 1.73391 1.97764C1.21474 2.49643 0.89585 3.01715 0.656681 3.63083C0.425289 4.22447 0.267788 4.9029 0.223065 5.89613C0.178537 6.89169 0.16687 7.21 0.16687 9.74481C0.16687 12.2796 0.178148 12.5968 0.22326 13.5923C0.268955 14.5859 0.426262 15.2642 0.656875 15.8576C0.895461 16.4715 1.21435 16.9922 1.73333 17.511C2.25192 18.0302 2.77265 18.3498 3.38613 18.5882C3.97997 18.819 4.65839 18.9763 5.65182 19.0218C6.64738 19.0672 6.9653 19.0782 9.49991 19.0782C12.0349 19.0782 12.3521 19.0672 13.3476 19.0218C14.3412 18.9763 15.0202 18.819 15.6141 18.5882C16.2278 18.3498 16.7477 18.0302 17.2663 17.511C17.7855 16.9922 18.1044 16.4715 18.3435 15.8578C18.573 15.2642 18.7305 14.5857 18.7771 13.5925C18.8219 12.5969 18.8335 12.2796 18.8335 9.74481C18.8335 7.21 18.8219 6.89189 18.7771 5.89632C18.7305 4.9027 18.573 4.22447 18.3435 3.63102C18.1044 3.01715 17.7855 2.49643 17.2663 1.97764C16.7471 1.45847 16.228 1.13958 15.6135 0.901382C15.0185 0.670574 14.3399 0.513267 13.3463 0.467766C12.3507 0.42246 12.0337 0.411377 9.49816 0.411377H9.50108ZM9.19023 2.09331H9.19024L9.50132 2.0934C11.9933 2.0934 12.2887 2.10234 13.2728 2.14707C14.1828 2.18868 14.6767 2.34073 15.0057 2.46849C15.4413 2.63765 15.7518 2.83988 16.0783 3.16655C16.4049 3.49322 16.6072 3.80433 16.7767 4.23989C16.9045 4.56851 17.0567 5.0624 17.0982 5.97241C17.1429 6.95631 17.1526 7.25187 17.1526 9.74273C17.1526 12.2336 17.1429 12.5291 17.0982 13.513C17.0565 14.4231 16.9045 14.9169 16.7767 15.2456C16.6076 15.6811 16.4049 15.9913 16.0783 16.3177C15.7516 16.6444 15.4415 16.8466 15.0057 17.0158C14.6771 17.1441 14.1828 17.2958 13.2728 17.3374C12.2889 17.3821 11.9933 17.3919 9.50132 17.3919C7.0091 17.3919 6.71374 17.3821 5.72984 17.3374C4.81983 17.2954 4.32593 17.1434 3.99674 17.0156C3.56118 16.8464 3.25006 16.6442 2.92339 16.3175C2.59672 15.9909 2.3945 15.6805 2.22494 15.2448C2.09719 14.9162 1.94494 14.4223 1.90352 13.5123C1.8588 12.5284 1.84985 12.2328 1.84985 9.74039C1.84985 7.24798 1.8588 6.95398 1.90352 5.97008C1.94513 5.06007 2.09719 4.56617 2.22494 4.23717C2.39411 3.80161 2.59672 3.4905 2.92339 3.16383C3.25006 2.83716 3.56118 2.63493 3.99674 2.46537C4.32574 2.33704 4.81983 2.18537 5.72984 2.14357C6.59085 2.10468 6.92452 2.09301 8.66404 2.09106V2.0934C8.8266 2.09314 9.00148 2.09322 9.1902 2.09331H9.19022H9.19023ZM13.3633 4.76283C13.3633 4.1443 13.865 3.64321 14.4833 3.64321V3.64282C15.1016 3.64282 15.6033 4.14449 15.6033 4.76283C15.6033 5.38117 15.1016 5.88285 14.4833 5.88285C13.865 5.88285 13.3633 5.38117 13.3633 4.76283ZM9.50043 4.95044C6.85352 4.95054 4.70752 7.09661 4.70752 9.74354C4.70752 12.3905 6.85363 14.5357 9.50063 14.5357C12.1476 14.5357 14.293 12.3905 14.293 9.74354C14.293 7.09655 12.1474 4.95044 9.50043 4.95044ZM12.6118 9.7442C12.6118 8.02588 11.2188 6.63306 9.50067 6.63306C7.78235 6.63306 6.38953 8.02588 6.38953 9.7442C6.38953 11.4623 7.78235 12.8553 9.50067 12.8553C11.2188 12.8553 12.6118 11.4623 12.6118 9.7442Z"/>
</svg>
