<svg width="23" height="15" viewBox="0 0 23 15" fill="none" xmlns="http://www.w3.org/2000/svg">
<path fill-rule="evenodd" clip-rule="evenodd" d="M14.2289 6.48736H7.31832V8.98455H11.4688C11.3016 10.0563 10.2143 12.1268 7.31832 12.1268C4.81963 12.1268 2.78096 10.0667 2.78096 7.52785C2.78096 4.98904 4.81963 2.92886 7.31832 2.92886C8.74016 2.92886 9.69154 3.53235 10.2352 4.0526L12.2216 2.14849C10.9461 0.962327 9.29426 0.244385 7.31832 0.244385C3.27233 0.244385 0 3.50114 0 7.52785C0 11.5546 3.27233 14.8113 7.31832 14.8113C11.542 14.8113 14.3439 11.8563 14.3439 7.69433C14.3439 7.2157 14.2916 6.85153 14.2289 6.48736ZM23.0001 8.56848V6.48748H20.9092V4.40649H18.8182V6.48748H16.7273V8.56848H18.8182V10.6495H20.9092V8.56848H23.0001Z" />
</svg>
