<svg width="90" height="79" viewBox="0 0 90 79" fill="none" xmlns="http://www.w3.org/2000/svg">
<path d="M10.4999 44.5804H16.4999V53.681C16.4999 54.3985 17.1715 54.9806 18 54.9806C18.3979 54.9806 18.7791 54.8435 19.0603 54.5998L30.621 44.5804H32.9997V41.9807H30C29.6021 41.9807 29.2203 42.1177 28.9392 42.3614L19.4996 50.5425V43.2808C19.4996 42.5627 18.8286 41.9807 18 41.9807H10.4999C6.3596 41.9764 3.00526 39.0687 3.00031 35.4804V9.48061C3.00526 5.89234 6.36022 2.98467 10.4999 2.98038H58.4999C62.6396 2.98467 65.9945 5.89234 65.9995 9.48061V28.9807H68.9998V9.48061C68.993 4.45724 64.296 0.38597 58.4993 0.380615H10.4999C4.70374 0.38597 0.00679643 4.45724 0 9.48061V35.4804C0.00679643 40.5038 4.70374 44.5751 10.4999 44.5804Z" />
<path d="M79.5002 31.5805H46.5005C40.7037 31.5864 36.0068 35.6572 36 40.6805V58.8805C36.0068 63.9044 40.7037 67.9751 46.5005 67.981H62.3794L73.9395 77.9999C74.5259 78.5075 75.4755 78.5075 76.0612 77.9999C76.3424 77.7563 76.4999 77.4253 76.4999 77.081V67.981H79.5002C85.2963 67.9751 89.9933 63.9044 90.0001 58.8805V40.6805C89.9933 35.6572 85.2963 31.5864 79.5002 31.5805ZM87.0004 58.8805C86.9954 62.4688 83.6405 65.3764 79.5002 65.3807H75.0004C74.1718 65.3807 73.5002 65.9628 73.5002 66.6809V73.9425L64.0606 65.7614C63.7795 65.5178 63.3983 65.3807 63.0003 65.3807H46.5005C42.3602 65.3764 39.0053 62.4688 39.0003 58.8805V40.6805C39.0053 37.0928 42.3602 34.1851 46.5005 34.1808H79.5002C83.6405 34.1846 86.9948 37.0928 86.9998 40.6805V58.8805H87.0004Z" />
<path d="M11.9995 10.7805H41.9995V13.3808H11.9995V10.7805Z" />
<path d="M47.9993 10.7805H56.9997V13.3808H47.9993V10.7805Z" />
<path d="M11.9995 18.5806H56.9993V21.1811H11.9995V18.5806Z" />
<path d="M33.0002 26.3802H57.0003V28.9811H33.0002V26.3802Z" />
<path d="M11.9995 26.3802H26.9992V28.9811H11.9995V26.3802Z" />
<path d="M11.9995 34.1806H32.9992V36.7798H11.9995V34.1806Z" />
<path d="M44.9995 40.6803H65.9993V43.2803H44.9995V40.6803Z" />
<path d="M71.9998 40.6803H81V43.2803H71.9998V40.6803Z" />
<path d="M44.9995 48.4807H80.999V51.0802H44.9995V48.4807Z" />
<path d="M44.9995 56.2808H80.999V58.8814H44.9995V56.2808Z" />
</svg>
