<svg xmlns="http://www.w3.org/2000/svg" viewBox="0 0 94 96" width="94" height="96">
	<defs>
		<clipPath clipPathUnits="userSpaceOnUse" id="cp1">
			<path d="M0 0L94 0L94 96L0 96Z" />
		</clipPath>
	</defs>
	<style>
		tspan { white-space:pre }
		.shp0 { fill: #fff } 
	</style>
	<g clip-path="url(#cp1)">
		<path fill-rule="evenodd" class="shp0" d="M93.11 47.44C93.11 73.11 72.22 94 46.56 94C20.88 94 0 73.11 0 47.44C0 21.77 20.89 0.89 46.56 0.89C72.22 0.89 93.11 21.77 93.11 47.44ZM88.94 47.44C88.94 24.08 69.92 5.06 46.56 5.06C23.19 5.06 4.18 24.08 4.18 47.44C4.18 70.81 23.19 89.81 46.56 89.81C69.92 89.81 88.94 70.81 88.94 47.44ZM49.39 35.39L49.39 70.77C49.39 72.5 47.99 73.91 46.26 73.91C44.53 73.91 43.12 72.5 43.12 70.77L43.12 35.39C43.12 33.65 44.53 32.25 46.26 32.25C47.99 32.25 49.39 33.65 49.39 35.39ZM50.26 23.57C50.26 25.67 48.55 27.37 46.45 27.37C44.35 27.37 42.64 25.67 42.64 23.57C42.64 21.46 44.35 19.76 46.45 19.76C48.55 19.76 50.26 21.46 50.26 23.57Z" />
	</g>
</svg>