<svg xmlns="http://www.w3.org/2000/svg" viewBox="0 0 42 46" width="42" height="46">
	<defs>
		<clipPath clipPathUnits="userSpaceOnUse" id="cp1">
			<path d="M0 0L42 0L42 46L0 46Z" />
		</clipPath>
	</defs>
	<style>
		tspan { white-space:pre }
		.shp0 { fill: #60543f } 
	</style>
	<g id="Page 1" clip-path="url(#cp1)">
		<path id="Path 1" fill-rule="evenodd" class="shp0" d="M40 35.67C40 40.27 36.27 44 31.66 44C27.07 44 23.33 40.27 23.33 35.67C23.33 35.36 23.39 35.07 23.42 34.76L13.33 29L13.36 28.94C11.96 30 10.23 30.66 8.33 30.66C3.74 30.66 0 26.94 0 22.33C0 17.73 3.74 14 8.33 14C10.76 14 12.91 15.05 14.44 16.7L23.72 11.39C23.49 10.63 23.33 9.84 23.33 9C23.33 4.4 27.07 0.67 31.66 0.67C36.27 0.67 40 4.4 40 9C40 13.6 36.27 17.33 31.66 17.33C29.25 17.33 27.08 16.28 25.56 14.63L16.27 19.94C16.5 20.7 16.67 21.49 16.67 22.33C16.67 23.69 16.31 24.95 15.74 26.09L24.66 31.18C26.14 28.87 28.72 27.34 31.66 27.34C36.27 27.34 40 31.06 40 35.67ZM26.67 9C26.67 11.76 28.91 14 31.66 14C34.43 14 36.67 11.76 36.67 9C36.67 6.24 34.43 4 31.66 4C28.91 4 26.67 6.24 26.67 9ZM13.33 22.33C13.33 19.57 11.09 17.33 8.33 17.33C5.58 17.33 3.34 19.57 3.34 22.33C3.34 25.1 5.58 27.34 8.33 27.34C11.09 27.34 13.33 25.1 13.33 22.33ZM36.67 35.67C36.67 32.9 34.43 30.66 31.66 30.66C28.91 30.66 26.67 32.9 26.67 35.67C26.67 38.43 28.91 40.66 31.66 40.66C34.43 40.66 36.67 38.43 36.67 35.67Z" />
	</g>
</svg>