<svg xmlns="http://www.w3.org/2000/svg" width="16" height="16"><defs><filter id="a"><feFlood flood-color="#7EB252" flood-opacity="1" result="floodOut"/><feComposite in="floodOut" in2="SourceGraphic" operator="atop" result="compOut"/><feBlend in="compOut" in2="SourceGraphic"/></filter></defs><path fill="#737373" fill-rule="evenodd" d="M2.826.221C3.87.211 4.18.735 4.688 1.242l1.588 1.589c.297.297.469.434.602.912.028.099.073.325.037.475-.122.498-.407.735-.712 1.041l-.529.547c-.119.119-.477.386-.512.548.081.085.117.211.183.31.133.2.293.389.438.584.159.215.388.391.548.603.407.539.992 1.089 1.533 1.497.078.058.14.159.219.218.219.164.426.321.657.475.118.078.228.2.402.219.158-.241.435-.436.638-.639.423-.422.767-.948 1.442-1.113.257-.063.55.039.694.109.612.296 1.005.841 1.46 1.296l1.15 1.15c.177.177.424.341.53.584.064.149.107.335.146.492a1.53 1.53 0 01-.037.658c-.155.451-.686.832-1.004 1.15-.274.274-.508.585-.876.767-.29.143-.65.207-.986.292-.517.131-1.346.087-1.825-.037l-.31-.037c-.331-.095-.691-.156-1.004-.292a15.364 15.364 0 01-1.387-.657c-.25-.138-.498-.335-.749-.474-2.149-1.198-4.059-3.194-5.257-5.349-.128-.229-.299-.465-.438-.693-.184-.302-.295-.629-.438-.967C.373 5.273.058 3.369.745 2.046c.16-.308.475-.53.712-.767l.785-.803a1.77 1.77 0 01.31-.182c.091-.04.206-.016.274-.073zm.11.803c-.064.049-.156.062-.22.11l-.839.857c-.142.141-.353.284-.438.475-.71 1.598.017 3.674.693 4.782a30.95 30.95 0 001.643 2.446c.093.123.236.224.329.347.164.217.349.438.566.602.066.051.1.15.164.2.269.215.494.49.766.694.32.24.625.502.95.731.615.433 1.275.8 1.953 1.168.868.472 2.384 1.106 3.778.73.218-.059.395-.062.584-.146.25-.112.404-.313.584-.493l.876-.858c.032-.043.038-.09.073-.128.005-.691-.319-.775-.657-1.113-.115-.115-.213-.249-.328-.365-.359-.359-.736-.7-1.095-1.059-.17-.169-.527-.665-.785-.694-.23-.139-.582.272-.676.366l-1.095 1.076c-.105.106-.307.388-.456.42-.103-.074-.28-.054-.402-.109a4.299 4.299 0 01-.693-.402c-1.048-.735-2.14-1.753-2.903-2.774-.393-.528-.948-1.008-1.058-1.807.239-.158.469-.47.675-.675.351-.351.714-.684 1.041-1.059h.036c.107-.126.123-.314.11-.512-.054-.042-.068-.108-.11-.163-.121-.163-.345-.345-.493-.493l-1.46-1.424c-.303-.304-.51-.729-1.113-.73z" filter="url(#a)"/></svg>